<svg width="1920" height="1024" viewBox="0 0 1920 1024" fill="none" xmlns="http://www.w3.org/2000/svg">
<g clip-path="url(#clip0_2_2)">
<rect width="1920" height="1024" fill="#1F41A9"/>
<path d="M274.966 935.466C274.966 1064.96 169.992 1169.93 40.5 1169.93C-88.9923 1169.93 -193.966 1064.96 -193.966 935.466C-193.966 805.974 -88.9923 701 40.5 701C169.992 701 274.966 805.974 274.966 935.466Z" fill="#274FC7"/>
<circle cx="-0.434418" cy="-0.434418" r="387.566" transform="rotate(90 -0.434418 -0.434418)" fill="#264ECA"/>
<path d="M1737.69 524C1841.19 473 1790.5 499.5 1920.19 454V1023.5H1332C1332 984.833 1336.9 932.274 1398.69 896.5C1436.69 874.5 1608.17 876.167 1651 848.5C1720.83 826.333 1641.19 603.5 1737.69 524Z" fill="#274FC7"/>
</g>
<defs>
<clipPath id="clip0_2_2">
<rect width="1920" height="1024" fill="white"/>
</clipPath>
</defs>
</svg>
